# xmcd CD database file
#
# Track frame offsets:
#	183
#	18108
#	41883
#
# Disc length: 824 seconds
#
# Revision: 1
# Processed by: cddbd v1.5.2PL0 Copyright (c) Steve Scherf et al.
# Submitted via: CDex 1.70beta2
#
DISCID=1b033603
DTITLE=Chris De Burgh - Talk to Me
DYEAR=1988
DGENRE=Pop
TTITLE0=Talk to Me
TTITLE1=Sailing Away (Live)
TTITLE2=The Simple Thruth (A Child Is Born)
EXTD=YEAR: 1988
EXTT0=
EXTT1=
EXTT2=
PLAYORDER=
